<?xml version="1.0" encoding="utf-8"?>
<!-- Generator: Adobe Illustrator 19.1.0, SVG Export Plug-In . SVG Version: 6.00 Build 0)  -->
<!DOCTYPE svg PUBLIC "-//W3C//DTD SVG 1.1//EN" "http://www.w3.org/Graphics/SVG/1.1/DTD/svg11.dtd">
<svg version="1.1" id="Layer_1" xmlns="http://www.w3.org/2000/svg" xmlns:xlink="http://www.w3.org/1999/xlink" x="0px" y="0px"
	 viewBox="-209 219.5 540 122.5" enable-background="new -209 219.5 540 122.5" xml:space="preserve">
<g id="Layer_1_1_">
</g>
<g id="Layer_2">
	<g>
		<path fill="#F9F9F9" d="M104.2,267.7H82.9v2.3c6.6,0,7.7,1.4,7.7,9.9V295c0,8.4-1.1,10-7.7,10c-5.1-0.7-8.5-3.4-13.3-8.7l-5.5-5.9
			c7.4-1.3,11.3-5.9,11.3-11.2c0-6.5-5.6-11.5-16-11.5H38.5v2.3c6.6,0,7.7,1.4,7.7,9.9V295c0,8.4-1.1,10-7.7,10v2.3h23.6V305
			c-6.6,0-7.7-1.5-7.7-10v-4.3h2l13.2,16.5h34.6c17,0,24.3-9,24.3-19.8C128.5,276.6,121.2,267.7,104.2,267.7z M54.4,287.1v-15.8h4.9
			c5.3,0,7.7,3.7,7.7,8c0,4.2-2.4,7.8-7.7,7.8L54.4,287.1L54.4,287.1z M104.5,303.6h-0.8c-4.3,0-4.9-1.1-4.9-6.5v-25.8
			c0,0,5.2,0,5.7,0c12.4,0,14.6,9,14.6,16C119.2,294.5,116.9,303.6,104.5,303.6z"/>
		<path fill="#F9F9F9" d="M-27.6,291.5l8.2-24.2c2.4-7,1.3-9-6.3-9v-2.4h22.3v2.4c-7.5,0-9.3,1.8-12.2,10.5l-13.5,40.6h-1.5
			l-12.1-37.2l-12.3,37.2h-1.5l-13.2-40.6c-2.9-8.7-4.8-10.5-11.6-10.5v-2.4h26.4v2.4c-7,0-8.9,1.7-6.4,9l8,24.2l12-35.6h2.3
			L-27.6,291.5z"/>
		<path fill="#F9F9F9" d="M12.8,308.8c-13.1,0-23.8-9.6-23.8-21.4c0-11.6,10.7-21.3,23.8-21.3c13.1,0,23.8,9.6,23.8,21.3
			C36.5,299.2,25.8,308.8,12.8,308.8z M12.8,269.8C1.8,269.8-2,279.7-2,287.4c0,7.8,3.8,17.6,14.7,17.6c11,0,14.8-9.7,14.8-17.6
			C27.6,279.7,23.8,269.8,12.8,269.8z"/>
		<path fill="#F9F9F9" d="M157.9,304.9v2.4h-27.2v-2.4c8,0,9.4-2,9.4-13.9v-19c0-11.9-1.4-13.8-9.4-13.8v-2.4h24.6
			c12.2,0,19,6.3,19,14.7c0,8.2-6.8,14.6-19,14.6h-6.8v5.8C148.5,302.9,149.9,304.9,157.9,304.9z M155.3,260.1h-6.8v20.7h6.8
			c6.7,0,9.7-4.6,9.7-10.2C165,264.9,161.9,260.1,155.3,260.1z"/>
		<path fill="#F9F9F9" d="M255.8,296.1l-0.6,2.1c-1.1,3.9-2.4,5.3-10.8,5.3h-1.7c-6.2,0-7.2-1.4-7.2-9.9v-5.5c9.3,0,10,0.8,10,7h2.3
			v-17.7h-2.3c0,6.2-0.7,7-10,7v-13.3h6.5c8.4,0,9.7,1.4,10.8,5.3l0.6,2.3h1.9l-0.8-11.2h-34.9v2.3c6.6,0,7.7,1.4,7.7,9.9V295
			c0,7.7-0.9,9.7-6.2,9.9c-5-0.8-8.4-3.5-13.1-8.6l-5.5-5.9c7.4-1.3,11.3-5.9,11.3-11.2c0-6.5-5.6-11.5-16-11.5H177v2.3
			c6.6,0,7.7,1.4,7.7,9.9V295c0,8.4-1.1,10-7.7,10v2.3h23.6V305c-6.6,0-7.7-1.5-7.7-10v-4.3h2l13.2,16.5h48.8l0.7-11.2L255.8,296.1
			L255.8,296.1z M192.9,287.1v-15.8h4.9c5.3,0,7.7,3.7,7.7,8c0,4.2-2.4,7.8-7.7,7.8L192.9,287.1L192.9,287.1z"/>
		<path fill="#F9F9F9" d="M279.9,308.8c-4.8,0-8.9-2.5-10.7-4c-0.6,0.6-1.7,2.4-1.9,4h-2.3v-16.4h2.4c1,7.8,6.4,12.5,13.4,12.5
			c3.8,0,6.9-2.1,6.9-5.7c0-3.1-2.7-5.5-7.6-7.7l-6.8-3.2c-4.8-2.3-8.3-6.2-8.3-11.4c0-5.7,5.3-10.6,12.7-10.6
			c3.9,0,7.2,1.4,9.3,3.1c0.6-0.5,1.2-1.8,1.5-3.2h2.3v14h-2.5c-0.8-5.6-3.9-10.2-10.2-10.2c-3.3,0-6.4,1.9-6.4,4.9
			c0,3.1,2.5,4.7,8.2,7.4l6.5,3.2c5.7,2.7,8,7.1,8,10.7C294.4,303.6,287.9,308.8,279.9,308.8z"/>
		<path fill="#F9F9F9" d="M316.5,308.8c-4.8,0-8.9-2.5-10.7-4c-0.6,0.6-1.7,2.4-1.9,4h-2.3v-16.4h2.4c1,7.8,6.4,12.5,13.4,12.5
			c3.8,0,6.9-2.1,6.9-5.7c0-3.1-2.7-5.5-7.6-7.7l-6.8-3.2c-4.8-2.3-8.3-6.2-8.3-11.4c0-5.7,5.3-10.6,12.7-10.6
			c3.9,0,7.2,1.4,9.3,3.1c0.6-0.5,1.2-1.8,1.5-3.2h2.3v14h-2.5c-0.8-5.6-3.9-10.2-10.2-10.2c-3.3,0-6.4,1.9-6.4,4.9
			c0,3.1,2.5,4.7,8.2,7.4l6.5,3.2c5.7,2.7,8,7.1,8,10.7C331,303.6,324.5,308.8,316.5,308.8z"/>
		<g>
			<path fill="#F9F9F9" d="M-200.3,280.7c0,20.8,12.1,38.8,29.6,47.3l-25.1-68.7C-198.7,265.9-200.3,273.1-200.3,280.7z"/>
			<path fill="#F9F9F9" d="M-112.3,278.1c0-6.5-2.3-11-4.3-14.5c-2.7-4.3-5.2-8-5.2-12.3c0-4.8,3.7-9.3,8.8-9.3c0.2,0,0.5,0,0.7,0
				c-9.3-8.6-21.8-13.8-35.5-13.8c-18.4,0-34.5,9.4-43.9,23.7c1.2,0,2.4,0.1,3.4,0.1c5.5,0,14-0.7,14-0.7c2.8-0.2,3.2,4,0.3,4.3
				c0,0-2.8,0.3-6,0.5l19.1,56.9l11.5-34.5l-8.2-22.4c-2.8-0.2-5.5-0.5-5.5-0.5c-2.8-0.2-2.5-4.5,0.3-4.3c0,0,8.7,0.7,13.8,0.7
				c5.5,0,14-0.7,14-0.7c2.8-0.2,3.2,4,0.3,4.3c0,0-2.9,0.3-6,0.5l19,56.5l5.2-17.5C-114,287.8-112.3,282.6-112.3,278.1z"/>
			<path fill="#F9F9F9" d="M-146.8,285.3l-15.8,45.8c4.7,1.4,9.7,2.1,14.8,2.1c6.1,0,12-1.1,17.5-3c-0.1-0.2-0.3-0.5-0.4-0.7
				L-146.8,285.3z"/>
			<path fill="#F9F9F9" d="M-101.6,255.5c0.2,1.7,0.4,3.5,0.4,5.4c0,5.3-1,11.3-4,18.8l-16.1,46.4c15.6-9.1,26.1-26,26.1-45.4
				C-95.2,271.6-97.5,263-101.6,255.5z"/>
			<path fill="#F9F9F9" d="M-147.7,219.5c-33.8,0-61.3,27.5-61.3,61.3c0,33.8,27.5,61.3,61.3,61.3c33.8,0,61.3-27.5,61.3-61.3
				C-86.5,247-114,219.5-147.7,219.5z M-147.7,339.2c-32.2,0-58.5-26.2-58.5-58.5c0-32.2,26.2-58.5,58.5-58.5
				c32.2,0,58.5,26.2,58.5,58.5C-89.3,313-115.5,339.2-147.7,339.2z"/>
		</g>
	</g>
</g>
</svg>
